<svg xmlns="http://www.w3.org/2000/svg" viewBox="0 0 533.92 292.78"><defs><style>.cls-1{fill:#1d1d1b;}</style></defs><g id="Layer_2" data-name="Layer 2"><g id="Layer_1-2" data-name="Layer 1"><g id="logo_black"><path class="cls-1" d="M32.94,230.42H0V106.64H73.15v26.84H32.94V157.1H70v26.84H32.94Z"/><path class="cls-1" d="M209.3,168.36q0,31.24-15.32,47.5T149.1,232.12q-29.13,0-44.66-16.35T88.9,168.19q0-30.9,15.45-47.2t44.92-16.3q29.55,0,44.79,16.17T209.3,168.36Zm-85.18,0q0,35.89,25,35.9,12.71,0,18.84-8.72t6.14-27.18q0-18.54-6.22-27.39t-18.59-8.85Q124.13,132.12,124.12,168.36Z"/><path class="cls-1" d="M427,106.64v74.51q0,24.3-13.75,37.63t-39.67,13.34q-25.32,0-38.91-13t-13.59-37.25V106.64h33.62v72.64q0,13.13,4.91,19.05t14.48,5.93q10.24,0,14.86-5.88t4.61-19.27V106.64Z"/><path class="cls-1" d="M533.92,192.83a36.56,36.56,0,0,1-5.84,20.45,38.29,38.29,0,0,1-16.85,13.88q-11,5-25.83,5a104.2,104.2,0,0,1-20.74-1.74,77,77,0,0,1-17.44-6V194.52a99.57,99.57,0,0,0,19.9,7.67,74.24,74.24,0,0,0,19,2.75q7.46,0,10.92-2.59a7.92,7.92,0,0,0,3.48-6.64,7.33,7.33,0,0,0-1.4-4.45,16.29,16.29,0,0,0-4.49-3.85q-3.09-1.95-16.47-8Q466,173.95,460,168.78a32.68,32.68,0,0,1-9-11.85,39.31,39.31,0,0,1-2.92-15.83q0-17.1,12.44-26.67t34.21-9.57q19.21,0,39.2,8.89l-10.24,25.82q-17.37-7.95-30-8c-4.35,0-7.51.77-9.48,2.29a6.9,6.9,0,0,0-3,5.67q0,3.65,3.76,6.52t20.45,10.5q16,7.2,22.23,15.45T533.92,192.83Z"/><path class="cls-1" d="M367.88,12.53q-24.37,30-73.15,89.75l-17.61,21.17a9.11,9.11,0,0,0-2.71,7.28,16.67,16.67,0,0,0,2,7.45q7.11,12.19,21.34,36.75,2,3.88,6.43,11.34,2.55,4.06-2,8.13-4.57,3.9-9.14,3a5.3,5.3,0,0,1-2.21-.85,12.82,12.82,0,0,1-1.69-1.69q-2.2-3.72-6.43-11.35l-8.81-15.24q-4.39-7.78-8.8-15.41a14.17,14.17,0,0,0-4.07-4.74c-1.58-1.13-3.38-.68-5.42,1.35-1,1.13-2.59,2.83-4.74,5.08a8.52,8.52,0,0,0-2.2,3.9,17.93,17.93,0,0,0-1,6.6V286.35c.12,3.39-1.92,5.42-6.09,6.1a13.69,13.69,0,0,1-2.88.33,9.28,9.28,0,0,1-6.6-2.37,6.21,6.21,0,0,1-1.19-1.69,6,6,0,0,1-.51-2.37V82.64q0-5.25,5.93-6.61,6.09-1.35,9.48,2.2a8.9,8.9,0,0,1,1.36,2.21,6.77,6.77,0,0,1,.5,2.7v38.11c0,3.83,1,5.36,3,4.57a8.69,8.69,0,0,0,4.41-2.88q8.79-10.5,26.24-31.67,24.39-30,73.33-89.58A4,4,0,0,1,358.23,0a10,10,0,0,1,3.39.68,10.33,10.33,0,0,1,6.6,5.75,9.53,9.53,0,0,1,.68,2.71v.17A9.43,9.43,0,0,1,367.88,12.53Z"/></g></g></g></svg>