<svg xmlns="http://www.w3.org/2000/svg" viewBox="0 0 238.3 201.35"><g id="Layer_2" data-name="Layer 2"><g id="Layer_1-2" data-name="Layer 1"><path d="M238.3,108.17c-2.8,8.08-8.61,10.87-17,10.84-51.14-.19-102.28-.09-153.42-.09H61.13c1.86,2,2.95,3.26,4.13,4.44,15.89,15.91,31.88,31.73,47.66,47.74,9.89,10,6,25.89-7.12,29.54-7.27,2-13.26-.45-18.52-5.74q-35.22-35.46-70.65-70.7c-3.42-3.41-6.94-6.71-10.48-10-8-7.41-8.21-19-.56-26.61,27.2-27,54.29-54.06,81.65-80.87A25,25,0,0,1,98.67.37c7.51-1.66,14.39,2.39,17.84,9a17.09,17.09,0,0,1-3.06,20.29C103.19,40.13,92.76,50.43,82.39,60.79Q71.08,72.1,59.78,83.42c-1.11,1.12-2.14,2.32-4.06,4.41h7c52.81,0,105.62.11,158.42-.11,8.32,0,14.19,2.48,17.21,10.45Z"/></g></g></svg>