<svg xmlns="http://www.w3.org/2000/svg" viewBox="0 0 200.73 117.8"><g id="Layer_2" data-name="Layer 2"><g id="Layer_1-2" data-name="Layer 1"><path d="M0,14.67c.34-.72.74-1.42,1-2.17C5.56-.48,20.3-4.21,30.15,5.41c15.14,14.8,30,29.84,45,44.79,8.31,8.27,16.61,16.56,25.18,25.12,1.49-1.39,2.82-2.56,4.07-3.81q33.06-32.9,66.09-65.82c5.28-5.27,11.57-7.06,18.64-4.55,6.66,2.36,10.52,7.37,11.43,14.33.85,6.42-2.05,11.38-6.52,15.82-25.13,24.92-50.1,50-75.3,74.86-4.35,4.29-9.5,7.79-14.28,11.65h-8c-4.78-3.86-9.92-7.35-14.28-11.65q-36.72-36.23-73-72.87C5.42,29.44,3,24.21,0,19.63Z"/></g></g></svg>