<svg xmlns="http://www.w3.org/2000/svg" viewBox="0 0 600 600"><defs><style>.cls-1{fill:#fcc101;}.cls-2{fill:#fff;}</style></defs><g id="Layer_2" data-name="Layer 2"><g id="Layer_1-2" data-name="Layer 1"><rect class="cls-1" width="600" height="600" rx="300"/><g id="Layer_2-2" data-name="Layer 2"><g id="Layer_1-2-2" data-name="Layer 1-2"><g id="logo_white" data-name="logo white"><path class="cls-2" d="M71.92,369H39V245.25h73.15v26.84H71.92v23.62H109v26.84H71.92Z"/><path class="cls-2" d="M248.28,307q0,31.25-15.32,47.5t-44.88,16.26q-29.13,0-44.66-16.34T127.88,306.8q0-30.9,15.45-47.2t44.92-16.3q29.55,0,44.79,16.17T248.28,307Zm-85.18,0q0,35.89,25,35.9,12.71,0,18.84-8.72T213.08,307q0-18.54-6.22-27.39t-18.59-8.85Q163.12,270.73,163.1,307Z"/><path class="cls-2" d="M466,245.25v74.51q0,24.3-13.75,37.63t-39.67,13.34q-25.32,0-38.91-13t-13.59-37.25V245.25h33.62v72.64q0,13.13,4.91,19.05t14.48,5.93q10.24,0,14.86-5.88t4.61-19.27V245.25Z"/><path class="cls-2" d="M572.9,331.44a36.6,36.6,0,0,1-5.84,20.45,38.31,38.31,0,0,1-16.85,13.88q-11,5-25.82,5A104.6,104.6,0,0,1,503.64,369a77.38,77.38,0,0,1-17.44-6v-29.9a99.85,99.85,0,0,0,19.9,7.67,74.43,74.43,0,0,0,19,2.75q7.46,0,10.92-2.59a7.91,7.91,0,0,0,3.48-6.64,7.31,7.31,0,0,0-1.4-4.45,16.25,16.25,0,0,0-4.49-3.85q-3.09-1.95-16.47-8Q505,312.56,499,307.39a32.74,32.74,0,0,1-9-11.85,39.21,39.21,0,0,1-2.92-15.83q0-17.1,12.44-26.67t34.21-9.57q19.21,0,39.2,8.89l-10.24,25.82q-17.37-7.95-30-8c-4.34,0-7.5.77-9.48,2.29a6.9,6.9,0,0,0-3,5.67c0,2.43,1.25,4.61,3.76,6.52s9.32,5.41,20.45,10.5q16,7.2,22.23,15.45T572.9,331.44Z"/><path class="cls-2" d="M406.86,151.14q-24.37,30-73.15,89.75L316.1,262.06a9.09,9.09,0,0,0-2.71,7.28,16.61,16.61,0,0,0,2,7.45q7.11,12.19,21.34,36.75,2,3.88,6.43,11.34,2.55,4.06-2,8.13-4.57,3.9-9.14,3a5.34,5.34,0,0,1-2.21-.85,12.85,12.85,0,0,1-1.69-1.69q-2.21-3.72-6.43-11.35l-8.81-15.24q-4.39-7.78-8.8-15.41a14.29,14.29,0,0,0-4.07-4.74c-1.58-1.13-3.38-.68-5.42,1.36q-1.51,1.7-4.74,5.08a8.41,8.41,0,0,0-2.2,3.89,18.08,18.08,0,0,0-1,6.6V425c.12,3.39-1.92,5.42-6.09,6.1a14,14,0,0,1-2.88.34,9.26,9.26,0,0,1-6.6-2.38,6.23,6.23,0,0,1-1.19-1.69,6,6,0,0,1-.51-2.37V221.25q0-5.25,5.93-6.61,6.09-1.35,9.48,2.2a8.66,8.66,0,0,1,1.36,2.21,6.71,6.71,0,0,1,.5,2.7v38.11q0,5.76,3,4.57a8.73,8.73,0,0,0,4.41-2.88q8.79-10.5,26.24-31.67,24.39-30,73.33-89.58a4,4,0,0,1,3.58-1.69,10.08,10.08,0,0,1,3.39.68,10.29,10.29,0,0,1,6.6,5.76,9.32,9.32,0,0,1,.68,2.7v.17A9.4,9.4,0,0,1,406.86,151.14Z"/></g></g></g></g></g></svg>