<svg xmlns="http://www.w3.org/2000/svg" viewBox="0 0 239.66 288.14"><g id="Layer_2" data-name="Layer 2"><g id="Layer_1-2" data-name="Layer 1"><path d="M239.66,16.08V271.2C237,280.32,231,286,221.73,288.14H17.58C3.23,282.74,0,278,0,262.09Q0,143.55,0,25a57.89,57.89,0,0,1,.33-7.45C1.64,7.22,9.48.06,19.9.05Q119.7-.06,219.48,0c9,0,15.77,5,19,13.44C238.8,14.36,239.26,15.21,239.66,16.08Zm-25.28,9.23H25.3V262.65H214.38Z"/><path d="M119.39,64.73q-34.58,0-69.14,0c-7.41,0-12.2-3.34-14.1-9.49a12.9,12.9,0,0,1,9.69-16.31,10.26,10.26,0,0,1,2-.27q71.63,0,143.24,0c5.82,0,10.17,3.75,11.8,9,2.71,8.78-3.48,16.87-13.34,17-15.25.16-30.5,0-45.75,0Z"/><path d="M103.31,223.49q-26.39,0-52.77,0c-9.14,0-15-5.1-15-13s5.94-13,15-13q53,0,106,0c7.61,0,13,4.59,13.87,11.56a12.79,12.79,0,0,1-9,13.83,21.14,21.14,0,0,1-5.9.6Q129.45,223.52,103.31,223.49Z"/><path d="M86.31,119.64c11.93,0,23.85,0,35.78,0,8.53,0,14.23,5.38,14.25,13.18s-5.57,13.37-14.11,13.41q-36.27.18-72.55,0c-8.35,0-14.22-5.92-14.12-13.5s6-13,14.47-13.08C62.12,119.6,74.22,119.64,86.31,119.64Z"/><path d="M175.26,120.06c4.8,0,9.61-.13,14.41,0,8.2.27,14,5.83,13.87,13.2s-5.86,12.85-14.09,13q-14.16.19-28.32,0c-8.26-.11-14-5.51-14.07-12.94s5.58-13,13.79-13.23C165.65,119.93,170.46,120.06,175.26,120.06Z"/></g></g></svg>