<svg xmlns="http://www.w3.org/2000/svg" viewBox="0 0 222.02 222.67"><g id="Layer_2" data-name="Layer 2"><g id="Layer_1-2" data-name="Layer 1"><path d="M105.55,222.67c-1.59-.4-3.19-.78-4.77-1.2-8.85-2.36-14.51-10-14.56-20.15-.09-19.58,0-39.15,0-58.73v-6.53H80.5q-29.37,0-58.73,0C8.23,136,.09,127.91,0,114.42c0-2.65,0-5.31,0-8C.27,94.84,8.6,86.39,20.24,86.32c19.91-.12,39.81,0,59.72,0h6c.09-2,.24-3.75.24-5.51,0-19.4,0-38.81,0-58.22C86.22,7.85,93.91.88,108.65.08,129.36-1,136.77,9.3,136.12,27.28c-.69,19.37-.15,38.79-.15,59h5.48c18.58,0,37.16.36,55.73-.13,12.35-.33,20.84,4.08,24.84,16.06v17.92c-4,11.93-12.45,16.39-24.8,16.06-18.55-.5-37.12-.13-55.68-.13H136v6.64c0,19.22.07,38.44,0,57.67-.07,11-5.59,18.69-14.67,21.1-1.58.42-3.18.8-4.76,1.2Z"/></g></g></svg>