<svg xmlns="http://www.w3.org/2000/svg" viewBox="0 0 250.37 241.81"><g id="Layer_2" data-name="Layer 2"><g id="Layer_1-2" data-name="Layer 1"><path d="M0,231.39V32.2C3.08,26,8,23.58,15,24c7.45.41,14.93.1,22.4.1,9.47,0,9.47,0,9.5-9.71,0-.83,0-1.66,0-2.49C47.17,4.45,51.68.17,59.34,0,68-.18,72.9,3.64,73.47,11.2a78.4,78.4,0,0,1,0,9.45c-.12,2.57.83,3.45,3.43,3.44Q126.5,24,176,24.1c2.66,0,3.49-1,3.36-3.49a89.06,89.06,0,0,1,0-8.95C179.79,4,184.59-.07,193.09,0c8,.07,12.64,4.25,13,11.88a62.17,62.17,0,0,1,0,8c-.29,3.22.78,4.35,4.13,4.28,9-.21,17.92-.12,26.88-.06,9.22.06,13.25,4.13,13.3,13.47.06,11.11,0,22.22,0,33.33q0,77.91,0,155.81c0,11.56-3.5,15-15.24,15-72.52,0-145-.1-217.56.13C9.08,241.84,3.11,239.49,0,231.39Zm125.59-141c-28.21,0-56.43.08-84.64-.08-4.32,0-6,.81-5.94,5.64.23,35.18.18,70.36,0,105.54,0,4,.8,5.43,5.13,5.42q85.14-.22,170.27,0c4.31,0,5.14-1.4,5.13-5.38q-.22-53,0-106c0-4.25-1.33-5.22-5.36-5.19C182,90.48,153.8,90.4,125.59,90.4Z"/></g></g></svg>