<svg xmlns="http://www.w3.org/2000/svg" viewBox="0 0 253.51 253.51"><g id="Layer_2" data-name="Layer 2"><g id="Layer_1-2" data-name="Layer 1"><path d="M0,145.08V108.44c1.88-3.73,4.89-5.32,9.07-5.62,6-.43,12-1.45,17.93-2.1a2.69,2.69,0,0,0,2.53-2.09c2.74-7,5.61-13.86,8.56-20.73a2.71,2.71,0,0,0-.31-3.3c-4.14-5.13-8.19-10.34-12.24-15.55-3-3.83-2.75-7.57.69-11q10.83-10.89,21.7-21.7c3.57-3.56,7.26-3.77,11.22-.69,5.14,4,10.28,8,15.36,12.09a2.71,2.71,0,0,0,3.28.42q10.41-4.48,20.95-8.67a2.49,2.49,0,0,0,1.93-2.38c.7-6.47,1.58-12.92,2.31-19.39.57-5,3.41-7.69,8.47-7.69h30.44c5.24,0,8.07,2.63,8.64,7.78.72,6.47,1.61,12.93,2.3,19.4.15,1.43.82,1.83,2,2.31,6.95,2.78,13.87,5.6,20.73,8.58a2.87,2.87,0,0,0,3.49-.45c5.08-4.09,10.21-8.1,15.36-12.1,3.82-3,7.59-2.76,11,.66q11,10.92,21.87,21.89c3.4,3.43,3.58,7.18.57,11-4.06,5.2-8.11,10.41-12.25,15.55a2.55,2.55,0,0,0-.3,3.07q4.47,10.42,8.68,21c.49,1.22.93,1.83,2.34,2,6.47.7,12.92,1.58,19.39,2.31,5.07.57,7.74,3.38,7.75,8.41q0,15.35,0,30.69c0,5-2.66,7.88-7.71,8.45-6.39.72-12.76,1.59-19.15,2.27a2.86,2.86,0,0,0-2.7,2.22q-4.08,10.32-8.49,20.49a2.86,2.86,0,0,0,.35,3.5c4.15,5.13,8.21,10.33,12.25,15.54,2.88,3.71,2.64,7.49-.69,10.85q-10.91,11-21.86,21.89c-3.45,3.43-7.22,3.66-11,.69-5.21-4-10.4-8.11-15.56-12.23a2.54,2.54,0,0,0-3.06-.43c-7,3-14.12,5.85-21.15,8.86a3.35,3.35,0,0,0-1.75,2.12c-.87,6-1.78,12.08-2.23,18.15-.31,4.18-1.86,7.22-5.64,9.06H108.43c-3.75-1.86-5.33-4.87-5.63-9.06-.43-6-1.44-11.93-2.1-17.91A2.68,2.68,0,0,0,98.64,224q-10.44-4.1-20.72-8.55a2.87,2.87,0,0,0-3.49.44C69.36,220,64.22,224,59.09,228c-3.86,3-7.59,2.82-11-.62q-11-10.9-21.83-21.89c-3.39-3.42-3.61-7.22-.64-11,4-5.14,8-10.29,12.08-15.35a2.88,2.88,0,0,0,.42-3.5c-2.94-6.77-5.75-13.61-8.49-20.47-.54-1.35-1-2.12-2.64-2.29-6-.61-11.92-1.65-17.91-2.1C4.87,150.41,1.84,148.84,0,145.08Zm126.77,45a63.37,63.37,0,1,0-63.38-63.48C63.26,161.49,91.86,190.13,126.77,190.12Z"/></g></g></svg>