<svg xmlns="http://www.w3.org/2000/svg" viewBox="0 0 310.75 282.04"><g id="Layer_2" data-name="Layer 2"><g id="Layer_1-2" data-name="Layer 1"><path d="M129.58,282a9.9,9.9,0,0,0-1.73-.85c-10.21-2.87-15.61-9.62-15.62-20.29q-.08-120,0-240.09C112.25,8.14,120.6.1,133.33.05Q155.5,0,177.67.05c12.38.06,20.8,8.24,20.81,20.52q.09,120.3,0,240.59c0,11.62-6.89,17.61-17.09,20.88Zm38.66-30.44V30.19H142.43V251.6Z"/><path d="M242.22,282c-8.36-2.14-15-6.32-17.23-15.28a28.4,28.4,0,0,1-.71-6.89q-.06-86.42,0-172.85c0-14.13,8.08-22.1,22.33-22.13s28.24,0,42.35,0c13.49,0,21.75,8.21,21.76,21.78q.1,86.69,0,173.35c0,11.71-4.55,17.18-17.65,22Zm38.16-30.43V95H254.56V251.61Z"/><path d="M0,145.52c4.39-12,13.14-16.34,25.57-15.82,12.92.55,25.88.1,38.82.13,14.07,0,22.16,8.17,22.17,22.35q0,52,0,104c0,15.73-3.4,20.67-17.79,25.86H17.94c-9-2-14.82-7.42-17.94-16ZM30.25,160v91.6h26V160Z"/></g></g></svg>