<svg xmlns="http://www.w3.org/2000/svg" viewBox="0 0 270.47 310.78"><g id="Layer_2" data-name="Layer 2"><g id="Layer_1-2" data-name="Layer 1"><path d="M146.65,310.78H124.73c-2.44-.39-4.86-.84-7.31-1.18C29.15,297.51-24.3,204,11,121.87,31.41,74.39,68.23,47.08,119.52,39.53c1.35-.2,3.45-1.69,3.57-2.76.43-3.9.17-7.88.17-12.32h-6c-12.11,0-24.23,0-36.35,0-8.68,0-13.87-4.32-14-11.46S72.42.11,80.51.09Q136-.09,191.56.1c8,0,12.49,5.31,12.06,13.23-.36,6.79-5.06,11-12.75,11.08-12.62.11-25.24,0-37.86.05-1.74,0-3.48.14-5.12.21V39.1c3.25.49,6.18.92,9.11,1.38,58.91,9.19,108.29,58.77,113.08,123.6,5.2,70.41-41.26,126.26-99.19,141.77C162.94,308,154.74,309.16,146.65,310.78Zm88.94-136c.08-55.63-44.68-101.06-99.75-101.25-55.37-.19-100.66,45.1-100.78,100.79S79.91,275.78,135.13,275.85C190.52,275.92,235.51,230.66,235.59,174.79Z"/><path d="M147.54,168.57c10.82,0,21.07-.09,31.32,0,7.68.09,12.51,4.44,12.75,11.09.26,7.08-4.73,13-12.08,13.15-15.26.37-30.53.41-45.79.28-6.38,0-11-5.52-11-12.39q.18-28.38.52-56.76c.09-7.72,4.29-12.5,11-12.74,7.24-.25,12.91,5,13.13,12.65.25,8.63.07,17.27.08,25.9Z"/></g></g></svg>